<?xml version="1.0" standalone="no"?>
<!DOCTYPE svg PUBLIC "-//W3C//DTD SVG 20010904//EN"
 "http://www.w3.org/TR/2001/REC-SVG-20010904/DTD/svg10.dtd">
<svg version="1.0" xmlns="http://www.w3.org/2000/svg"
 width="500.000000pt" height="500.000000pt" viewBox="0 0 500.000000 500.000000"
 preserveAspectRatio="xMidYMid meet">

<g transform="translate(0.000000,500.000000) scale(0.100000,-0.100000)"
fill="#000000" stroke="none">
<path d="M2350 3630 l-25 -8 23 -7 c17 -6 22 -15 22 -41 0 -19 5 -34 10 -34 6
0 10 18 10 40 0 22 5 40 10 40 6 0 10 5 10 10 0 12 -24 12 -60 0z"/>
<path d="M2524 3590 c11 -55 30 -65 41 -22 l7 27 10 -27 c13 -38 25 -35 43 9
19 46 15 81 -5 41 -14 -30 -30 -28 -30 3 0 27 -15 24 -30 -8 l-14 -28 -4 28
c-2 15 -9 27 -16 27 -10 0 -10 -11 -2 -50z"/>
<path d="M2200 3599 c-33 -13 -32 -11 -19 -63 12 -49 29 -62 29 -22 0 16 7 27
20 31 28 9 16 23 -15 17 -33 -6 -33 14 0 22 14 4 25 11 25 16 0 12 -7 12 -40
-1z"/>
<path d="M2746 3566 c-33 -43 -33 -55 -1 -48 18 3 30 -1 40 -14 13 -17 14 -13
15 39 0 68 -14 74 -54 23z m30 -23 c-10 -10 -19 5 -10 18 6 11 8 11 12 0 2 -7
1 -15 -2 -18z"/>
<path d="M2910 3500 c-22 -44 -24 -50 -12 -50 5 0 17 15 27 34 11 20 24 32 32
29 18 -7 17 -33 -2 -33 -10 0 -15 -10 -15 -30 0 -16 5 -30 10 -30 6 0 10 9 10
19 0 10 7 21 15 25 25 9 18 51 -10 64 -35 16 -32 17 -55 -28z"/>
<path d="M2012 3518 c-17 -17 -15 -39 7 -67 14 -18 24 -22 44 -18 33 9 40 32
22 68 -16 31 -51 39 -73 17z m56 -32 c11 -25 7 -36 -14 -36 -16 0 -37 37 -29
50 11 18 31 11 43 -14z"/>
<path d="M3065 3404 l-28 -36 26 -26 c30 -30 50 -23 22 8 -21 23 -13 39 10 20
23 -19 31 -3 10 20 -14 16 -15 20 -4 20 8 0 20 -5 27 -12 6 -6 15 -9 18 -5 7
6 -34 46 -47 47 -4 0 -19 -16 -34 -36z"/>
<path d="M1862 3418 c-16 -16 -15 -45 1 -51 6 -2 23 0 36 5 13 5 26 6 28 4 10
-9 -9 -26 -28 -26 -10 0 -19 -4 -19 -10 0 -15 46 -12 60 5 6 8 10 22 8 32 -3
14 -12 17 -41 15 -21 -2 -37 2 -37 8 0 5 9 10 20 10 11 0 20 5 20 10 0 14 -33
13 -48 -2z"/>
<path d="M1287 3286 c-49 -18 -76 -42 -95 -86 -13 -28 -17 -92 -22 -316 -6
-317 -5 -314 -82 -335 -32 -8 -39 -14 -36 -31 2 -15 13 -24 38 -30 19 -5 45
-20 58 -34 21 -25 22 -31 23 -267 1 -332 7 -365 81 -420 29 -22 122 -35 132
-19 12 20 -7 42 -42 48 -58 10 -89 31 -101 65 -7 20 -11 129 -11 296 0 289 -5
319 -58 347 -25 13 -25 14 -5 24 11 6 29 24 39 39 17 25 19 55 24 320 l5 291
24 26 c15 15 41 29 63 32 21 4 45 12 55 19 15 11 15 15 4 29 -16 19 -43 20
-94 2z"/>
<path d="M3640 3285 c-12 -15 -12 -19 3 -30 10 -7 34 -15 55 -19 22 -3 48 -17
63 -32 l24 -26 5 -291 c5 -265 7 -295 24 -320 10 -15 28 -33 39 -39 20 -10 20
-11 -5 -24 -51 -27 -58 -69 -58 -353 0 -163 -4 -270 -11 -290 -12 -34 -43 -55
-101 -65 -38 -7 -52 -24 -38 -46 5 -9 22 -11 55 -8 78 9 132 63 146 145 4 26
8 159 8 295 1 242 1 247 24 272 12 14 38 29 57 34 25 6 36 15 38 30 3 17 -4
23 -37 32 -22 6 -49 22 -60 37 -20 24 -21 39 -21 262 0 254 -9 341 -38 381
-41 55 -145 88 -172 55z"/>
<path d="M1654 3198 c-93 -104 -182 -273 -225 -428 -21 -75 -24 -106 -24 -270
0 -189 5 -220 52 -359 39 -116 140 -286 212 -355 40 -39 41 -39 61 -21 11 10
20 22 20 26 0 4 -21 32 -47 62 -103 117 -187 297 -218 462 -23 120 -16 327 14
436 41 151 119 300 208 398 l52 58 -23 22 c-12 11 -25 21 -28 21 -3 0 -28 -24
-54 -52z"/>
<path d="M3273 3228 l-22 -21 53 -58 c88 -98 166 -247 207 -398 30 -109 37
-316 14 -436 -31 -165 -115 -345 -217 -462 -27 -30 -48 -58 -48 -62 0 -4 9
-16 20 -26 20 -18 21 -18 61 21 72 69 173 239 212 355 47 139 52 170 52 359 0
164 -3 195 -24 270 -26 95 -90 239 -143 321 -36 56 -125 159 -137 159 -3 0
-16 -10 -28 -22z"/>
<path d="M1895 2838 c-6 -15 198 -591 221 -625 12 -20 23 -23 78 -23 40 0 68
5 74 13 6 7 61 152 122 322 83 232 107 311 98 317 -17 10 -119 10 -136 -1 -7
-4 -44 -101 -81 -215 -37 -113 -70 -209 -73 -212 -3 -3 -38 91 -78 210 -44
132 -77 217 -86 220 -30 11 -134 6 -139 -6z"/>
<path d="M2682 2842 c-9 -7 -12 -79 -10 -328 l3 -319 230 0 230 0 0 65 0 65
-157 3 -158 3 -2 257 -3 257 -60 3 c-33 1 -66 -2 -73 -6z"/>
<path d="M1833 1701 c-31 -37 -31 -39 -14 -55 23 -21 54 -20 74 2 23 25 21 45
-5 70 l-23 21 -32 -38z m57 -15 c0 -20 -28 -39 -46 -32 -15 6 -14 9 6 31 23
25 40 25 40 1z"/>
<path d="M3102 1707 l-22 -23 31 -37 c37 -45 59 -39 24 7 -22 28 -23 35 -11
45 16 13 32 -1 21 -18 -9 -16 35 -35 48 -22 8 8 8 11 0 11 -7 0 -18 12 -25 27
-17 36 -39 39 -66 10z"/>
<path d="M1969 1586 l-27 -43 28 -17 c40 -23 60 -19 27 5 -31 23 -27 45 4 28
28 -14 38 -2 13 15 -10 8 -16 18 -11 22 4 4 13 2 19 -4 7 -7 19 -12 28 -12 10
1 5 9 -15 25 -16 14 -32 25 -35 25 -3 0 -17 -20 -31 -44z"/>
<path d="M2973 1609 l-32 -21 26 -39 c14 -21 28 -39 30 -39 16 0 63 33 58 40
-4 6 -16 3 -31 -6 -22 -15 -24 -15 -24 -1 0 9 8 20 17 26 24 13 10 25 -15 12
-28 -15 -35 -2 -9 19 32 26 17 32 -20 9z"/>
<path d="M2130 1495 c0 -68 14 -71 59 -15 22 27 27 40 17 40 -8 0 -24 -12 -35
-27 l-20 -28 -1 43 c0 23 -4 42 -10 42 -5 0 -10 -25 -10 -55z"/>
<path d="M2813 1530 c-22 -9 -22 -10 -6 -55 17 -45 33 -59 33 -29 0 9 10 24
23 34 18 15 20 22 11 37 -13 21 -31 25 -61 13z m43 -21 c8 -14 -18 -31 -30
-19 -9 9 0 30 14 30 5 0 12 -5 16 -11z"/>
<path d="M2291 1451 c-5 -25 -8 -48 -5 -52 6 -10 74 -16 74 -7 0 4 -11 10 -25
14 -14 3 -25 10 -25 15 0 5 11 9 25 9 14 0 25 5 25 10 0 6 -9 10 -20 10 -11 0
-20 5 -20 10 0 6 12 10 26 10 34 0 22 17 -15 22 -29 4 -31 2 -40 -41z"/>
<path d="M2643 1483 c-15 -5 -17 -61 -4 -81 5 -8 21 -12 37 -10 25 3 29 8 32
36 5 50 -22 73 -65 55z m45 -36 c2 -10 1 -25 -2 -34 -9 -23 -36 3 -36 34 0 18
5 24 17 21 10 -2 19 -11 21 -21z"/>
<path d="M2470 1425 l0 -55 35 0 c19 0 35 5 35 10 0 6 -11 10 -25 10 -23 0
-25 4 -25 45 0 25 -4 45 -10 45 -5 0 -10 -25 -10 -55z"/>
</g>
</svg>
