<?xml version="1.0" standalone="no"?>
<!DOCTYPE svg PUBLIC "-//W3C//DTD SVG 20010904//EN"
 "http://www.w3.org/TR/2001/REC-SVG-20010904/DTD/svg10.dtd">
<svg version="1.0" xmlns="http://www.w3.org/2000/svg"
 width="500.000000pt" height="500.000000pt" viewBox="0 0 500.000000 500.000000"
 preserveAspectRatio="xMidYMid meet">

<g transform="translate(0.000000,500.000000) scale(0.100000,-0.100000)"
fill="#000000" stroke="none">
<path d="M2514 3625 c4 -15 10 -40 13 -56 7 -35 29 -38 39 -6 7 22 7 21 16 -5
5 -16 13 -28 18 -28 10 0 50 97 42 104 -11 12 -21 5 -30 -21 l-10 -28 -7 28
c-8 32 -25 35 -32 7 -7 -26 -21 -26 -25 2 -2 12 -9 23 -17 26 -11 4 -12 -2 -7
-23z"/>
<path d="M2343 3633 c-19 -7 -16 -20 7 -26 15 -4 20 -14 20 -42 0 -25 4 -35
13 -32 8 2 11 18 9 45 -3 34 0 42 13 42 9 0 13 5 10 10 -6 10 -50 12 -72 3z"/>
<path d="M2189 3599 l-27 -10 16 -50 c15 -48 40 -64 34 -21 -2 13 4 23 18 27
11 3 18 11 14 16 -3 5 -14 7 -25 4 -10 -4 -19 -2 -19 4 0 5 9 13 20 16 22 7
28 25 8 24 -7 0 -25 -5 -39 -10z"/>
<path d="M2741 3561 c-33 -42 -31 -54 6 -45 17 5 28 1 38 -12 19 -27 24 -16
18 44 -7 63 -20 66 -62 13z m39 -6 c0 -8 -4 -15 -10 -15 -5 0 -7 7 -4 15 4 8
8 15 10 15 2 0 4 -7 4 -15z"/>
<path d="M2910 3508 c-11 -18 -20 -39 -20 -45 0 -23 19 -13 35 18 16 30 35 35
43 11 2 -7 -3 -12 -12 -12 -20 0 -29 -16 -21 -40 8 -26 25 -26 25 0 0 11 4 20
10 20 5 0 14 9 20 20 8 15 6 23 -12 40 -30 28 -45 25 -68 -12z"/>
<path d="M2012 3518 c-27 -27 2 -88 42 -88 40 0 52 25 33 65 -18 37 -51 47
-75 23z m46 -20 c16 -16 15 -48 -1 -48 -15 0 -39 44 -30 54 9 9 18 7 31 -6z"/>
<path d="M3061 3402 l-30 -39 30 -22 c35 -26 51 -20 24 9 -21 23 -13 39 10 20
19 -15 34 -5 17 12 -21 21 -13 31 12 14 34 -22 42 -2 10 23 -15 12 -30 21 -35
21 -4 0 -21 -17 -38 -38z"/>
<path d="M1860 3415 c-26 -31 3 -60 45 -44 6 2 12 0 15 -6 3 -5 -5 -11 -17
-13 -30 -4 -29 -22 1 -22 28 0 49 22 44 47 -3 14 -12 17 -41 16 -23 -2 -35 1
-32 7 3 6 13 10 21 10 8 0 14 5 14 10 0 15 -36 12 -50 -5z"/>
<path d="M1270 3278 c-54 -28 -80 -62 -91 -119 -4 -24 -8 -158 -9 -297 l0
-254 -29 -29 c-17 -16 -40 -29 -54 -29 -14 0 -30 -7 -37 -15 -17 -21 -1 -39
49 -53 67 -20 65 -15 71 -331 5 -265 7 -289 26 -326 13 -25 36 -47 64 -62 52
-27 118 -31 127 -7 8 22 -22 44 -59 44 -16 0 -41 12 -60 29 l-33 29 -5 294
c-5 307 -7 321 -52 352 l-22 16 23 16 c46 33 51 65 51 336 0 325 4 339 98 363
52 13 77 39 52 55 -25 16 -63 11 -110 -12z"/>
<path d="M3640 3290 c-25 -16 0 -42 52 -55 94 -24 98 -38 98 -363 0 -271 5
-303 51 -336 21 -15 22 -18 8 -26 -9 -5 -25 -22 -35 -37 -17 -25 -19 -56 -24
-321 l-5 -294 -33 -29 c-19 -17 -44 -29 -60 -29 -37 0 -67 -22 -59 -44 9 -24
75 -20 127 7 28 15 51 37 64 62 19 37 21 61 26 328 5 287 5 289 28 308 13 10
39 21 57 25 18 3 36 13 39 21 9 21 -12 43 -40 43 -12 0 -36 11 -51 24 l-28 24
-5 289 c-5 305 -8 321 -57 365 -43 39 -121 58 -153 38z"/>
<path d="M1663 3210 c-109 -123 -194 -281 -233 -435 -89 -348 -4 -713 227
-981 l47 -54 27 26 28 27 -54 60 c-91 102 -165 247 -206 405 -27 100 -36 286
-19 389 31 196 120 387 242 519 l38 41 -28 25 -27 26 -42 -48z"/>
<path d="M3265 3230 c-17 -19 -17 -21 22 -62 123 -134 212 -324 243 -521 17
-103 8 -289 -19 -389 -42 -159 -115 -303 -208 -407 l-56 -63 27 -26 27 -27 44
50 c278 311 348 768 177 1154 -43 98 -105 194 -170 264 -50 52 -61 56 -87 27z"/>
<path d="M1894 2836 c-3 -7 41 -141 97 -297 141 -395 115 -349 198 -349 62 0
72 3 85 23 23 35 228 616 221 627 -9 15 -141 12 -153 -2 -5 -7 -40 -107 -77
-223 l-68 -210 -71 210 c-39 116 -75 216 -79 223 -12 18 -146 16 -153 -2z"/>
<path d="M2675 2837 c-3 -7 -4 -154 -3 -327 l3 -315 230 0 230 0 0 65 0 65
-152 3 -153 3 0 247 c0 180 -3 251 -12 260 -16 16 -137 16 -143 -1z"/>
<path d="M1830 1702 l-31 -37 26 -22 c33 -29 36 -29 64 1 27 29 23 69 -8 86
-16 8 -25 4 -51 -28z m56 -13 c10 -16 -22 -43 -42 -35 -16 6 -16 8 1 26 20 23
31 25 41 9z"/>
<path d="M3100 1705 l-24 -25 34 -35 c23 -23 37 -32 44 -25 7 7 1 19 -17 38
-26 28 -27 42 -1 42 7 0 10 -8 7 -20 -4 -14 1 -21 22 -26 31 -8 58 11 28 20
-10 3 -23 16 -28 28 -14 32 -37 33 -65 3z"/>
<path d="M1979 1608 c-7 -13 -18 -33 -26 -44 -13 -20 -11 -23 21 -42 37 -22
62 -12 26 10 -28 18 -25 30 5 22 27 -7 35 10 10 20 -8 3 -15 10 -15 16 0 7 6
8 19 0 11 -5 24 -10 30 -10 20 0 11 17 -16 31 -16 7 -31 15 -35 17 -4 2 -12
-7 -19 -20z"/>
<path d="M2968 1607 l-26 -22 26 -42 27 -42 33 20 c32 21 45 46 17 35 -8 -3
-22 -9 -30 -12 -21 -9 -19 13 2 25 25 14 9 25 -16 11 -15 -7 -21 -7 -21 0 0 6
7 13 15 16 15 6 21 34 8 34 -5 0 -20 -10 -35 -23z"/>
<path d="M2130 1496 c0 -69 15 -73 59 -17 37 46 29 62 -12 24 l-29 -28 4 34
c2 21 -2 36 -9 38 -10 3 -13 -11 -13 -51z"/>
<path d="M2807 1528 c-16 -12 -16 -15 -1 -55 10 -24 23 -43 31 -43 8 0 11 5 8
11 -4 6 3 22 16 35 18 20 21 29 13 42 -14 22 -44 26 -67 10z m47 -17 c3 -5 0
-14 -8 -20 -10 -9 -15 -8 -19 3 -9 22 15 37 27 17z"/>
<path d="M2296 1483 c-3 -10 -8 -34 -11 -54 -7 -36 -6 -36 31 -42 21 -4 40 -5
42 -2 9 8 -10 25 -29 25 -10 0 -19 5 -19 10 0 6 11 10 25 10 14 0 25 5 25 10
0 6 -9 10 -20 10 -11 0 -20 5 -20 11 0 7 10 9 25 7 17 -4 25 -1 25 8 0 8 -9
14 -19 14 -11 0 -26 3 -34 6 -9 3 -17 -2 -21 -13z"/>
<path d="M2637 1484 c-13 -13 -7 -72 9 -88 20 -20 27 -20 54 2 19 15 20 22 13
52 -8 29 -14 36 -39 38 -16 2 -33 0 -37 -4z m51 -47 c2 -19 -1 -27 -12 -27
-17 0 -31 34 -21 50 11 18 30 5 33 -23z"/>
<path d="M2464 1466 c-3 -8 -4 -31 -2 -52 3 -37 5 -39 41 -42 21 -2 37 1 37 7
0 6 -11 11 -25 11 -23 0 -25 4 -25 45 0 43 -15 61 -26 31z"/>
</g>
</svg>
